<svg xmlns="http://www.w3.org/2000/svg" viewBox="0 0 24 24" fill="none" stroke="#00ff41" stroke-width="1.5" stroke-linecap="round" stroke-linejoin="round">
  <path d="M12 2a9 9 0 0 1 9 9c0 3.2-1.7 6-4.2 7.7V21a1 1 0 0 1-1 1H8.2a1 1 0 0 1-1-1v-2.3C4.7 17 3 14.2 3 11a9 9 0 0 1 9-9z"/>
  <line x1="9" y1="22" x2="15" y2="22"/>
  <line x1="9" y1="19" x2="9" y2="22"/>
  <line x1="15" y1="19" x2="15" y2="22"/>
  <circle cx="9" cy="11" r="1.5" fill="#00ff41"/>
  <circle cx="15" cy="11" r="1.5" fill="#00ff41"/>
</svg>